# xmcd
#
# Track frame offsets:
#	150
#	14097
#	27272
#	41055
#	56440
#	69852
#	87335
#	104130
#	116587
#	126872
#	140850
#	153645
#	169182
#	181009
#
# Disc length: 2598
#
# Revision: 1
# Processed by: cddbd v1.5.1PL0 Copyright (c) Steve Scherf et al.
# Submitted via: OrangeCD 4.1
# Normalized: r0:DSETVAR1,TDELIM( - )
#
DISCID=c70a240e
DTITLE=Various Artist - All New Line Dances
DYEAR=1900
DGENRE=
TTITLE0=Joe Diffie - Down In A Ditch
TTITLE1=Wade Hayes - Undo The Right
TTITLE2=Ricochet - Daddy's Money
TTITLE3=Patty Loveless - You Can Feel Bad
TTITLE4=Jeff Carson - Betty's Takin' Judo
TTITLE5=Boy Howdy - She Can't Love You
TTITLE6=Hal Ketchum - Wings Of A Dove
TTITLE7=Jo Dee Messina - Do You Wanna Make Something Of It
TTITLE8=Ty Herndon - In Your Face
TTITLE9=Rick Travino - Running Out Of Reasons To Run
TTITLE10=Junior Brown - Darlin' I'll Do Anything You Say
TTITLE11=James Bonamy - She's Got A Mind Of Her Own
TTITLE12=Joe Diffie - C-O-U-N-T-R-Y
TTITLE13=Hal Ketchum - Hearts Are Gonna Roll
EXTD=
EXTT0=
EXTT1=
EXTT2=
EXTT3=
EXTT4=
EXTT5=
EXTT6=
EXTT7=
EXTT8=
EXTT9=
EXTT10=
EXTT11=
EXTT12=
EXTT13=
PLAYORDER=
